<svg width="1226" height="300" viewBox="0 0 1226 300" fill="none" xmlns="http://www.w3.org/2000/svg">
<path d="M143.817 294L84.2172 182H49.0172V294H0.617188V10.4H109.417C136.084 10.4 157.551 18.6667 173.817 35.2C190.084 51.4667 198.217 71.8667 198.217 96.4C198.217 116.667 192.484 134 181.017 148.4C169.551 162.8 153.951 172.4 134.217 177.2L198.217 294H143.817ZM49.0172 139.6H100.617C115.284 139.6 127.017 135.733 135.817 128C144.884 120 149.417 109.467 149.417 96.4C149.417 83.0667 144.884 72.5333 135.817 64.8C127.017 56.8 115.284 52.8 100.617 52.8H49.0172V139.6ZM271.205 175.2H366.805C366.271 162.933 361.871 152.667 353.605 144.4C345.605 136.133 334.005 132 318.805 132C304.938 132 293.738 136.4 285.205 145.2C276.671 153.733 272.005 163.733 271.205 175.2ZM372.005 226L411.205 238.4C405.605 256.267 395.071 271.067 379.605 282.8C364.405 294.267 345.605 300 323.205 300C295.471 300 271.871 290.533 252.405 271.6C233.205 252.667 223.605 227.333 223.605 195.6C223.605 165.733 232.938 141.2 251.605 122C270.538 102.8 292.805 93.2 318.405 93.2C348.271 93.2 371.605 102.4 388.405 120.8C405.205 138.933 413.605 163.467 413.605 194.4C413.605 202.667 413.205 207.6 412.405 209.2H270.005C270.538 223.867 275.871 236 286.005 245.6C296.405 255.2 308.805 260 323.205 260C348.271 260 364.538 248.667 372.005 226ZM445.945 241.2C445.945 224.667 451.279 211.467 461.945 201.6C472.879 191.467 487.145 185.067 504.745 182.4L554.745 174.8C564.345 173.467 569.145 168.8 569.145 160.8C569.145 152 566.079 144.933 559.945 139.6C553.812 134 544.612 131.2 532.345 131.2C520.612 131.2 511.279 134.533 504.345 141.2C497.412 147.6 493.412 156 492.345 166.4L449.945 156.8C451.812 139.2 460.212 124.267 475.145 112C490.079 99.4667 509.012 93.2 531.945 93.2C560.212 93.2 581.012 100 594.345 113.6C607.945 127.2 614.745 144.667 614.745 166V262.8C614.745 275.6 615.545 286 617.145 294H573.945C572.612 290 571.945 281.733 571.945 269.2C559.145 289.733 539.145 300 511.945 300C492.212 300 476.212 294.267 463.945 282.8C451.945 271.067 445.945 257.2 445.945 241.2ZM520.745 263.6C535.145 263.6 546.745 259.733 555.545 252C564.612 244 569.145 231.067 569.145 213.2V204.4L518.345 212C501.012 214.933 492.345 223.733 492.345 238.4C492.345 245.333 494.879 251.333 499.945 256.4C505.012 261.2 511.945 263.6 520.745 263.6ZM701.645 196C701.645 214.667 706.445 229.733 716.045 241.2C725.645 252.4 738.312 258 754.045 258C769.245 258 781.645 252.267 791.245 240.8C800.845 229.333 805.645 214.267 805.645 195.6C805.645 177.2 800.979 162.533 791.645 151.6C782.312 140.667 769.912 135.2 754.445 135.2C738.979 135.2 726.312 140.8 716.445 152C706.579 162.933 701.645 177.6 701.645 196ZM850.445 4.39999V258.4C850.445 271.467 851.112 283.333 852.445 294H808.045C806.712 286.533 806.045 278.133 806.045 268.8C801.245 277.6 793.779 284.8 783.645 290.4C773.512 296 761.912 298.8 748.845 298.8C721.112 298.8 698.579 289.067 681.245 269.6C663.912 250.133 655.245 225.6 655.245 196C655.245 167.467 663.912 143.333 681.245 123.6C698.845 103.867 721.112 94 748.045 94C763.512 94 775.912 96.8 785.245 102.4C794.845 108 801.512 114.533 805.245 122V4.39999H850.445ZM957.07 294H911.07V99.2H957.07V294ZM912.67 52C906.804 46.1333 903.87 39.0667 903.87 30.8C903.87 22.5333 906.804 15.4667 912.67 9.59999C918.537 3.46666 925.604 0.399989 933.87 0.399989C942.404 0.399989 949.604 3.33332 955.47 9.2C961.337 15.0666 964.27 22.2666 964.27 30.8C964.27 39.0667 961.337 46.1333 955.47 52C949.604 57.8667 942.404 60.8 933.87 60.8C925.604 60.8 918.537 57.8667 912.67 52ZM1075.73 39.6V99.2H1116.13V140.4H1075.73V230.8C1075.73 239.333 1077.73 245.6 1081.73 249.6C1085.73 253.333 1092 255.2 1100.53 255.2C1105.86 255.2 1111.2 254.667 1116.53 253.6V292C1109.6 294.933 1100.13 296.4 1088.13 296.4C1070 296.4 1055.73 291.333 1045.33 281.2C1034.93 270.8 1029.73 256.533 1029.73 238.4V140.4H993.73V99.2H1003.73C1013.6 99.2 1021.06 96.4 1026.13 90.8C1031.2 85.2 1033.73 77.8667 1033.73 68.8V39.6H1075.73ZM1169.02 287.2C1162.89 280.8 1159.82 273.067 1159.82 264C1159.82 254.933 1162.89 247.2 1169.02 240.8C1175.42 234.4 1183.16 231.2 1192.22 231.2C1201.29 231.2 1209.02 234.4 1215.42 240.8C1221.82 247.2 1225.02 254.933 1225.02 264C1225.02 273.067 1221.82 280.8 1215.42 287.2C1209.02 293.333 1201.29 296.4 1192.22 296.4C1183.16 296.4 1175.42 293.333 1169.02 287.2Z" fill="black"/>
</svg>
